<?xml version="1.0" encoding="iso-8859-1"?>
<!-- Uploaded to: SVG Repo, www.svgrepo.com, Generator: SVG Repo Mixer Tools -->
<svg fill="#000000" height="800px" width="800px" version="1.1" id="Layer_1" xmlns="http://www.w3.org/2000/svg" xmlns:xlink="http://www.w3.org/1999/xlink" 
	 viewBox="0 0 512 512" xml:space="preserve">
<g>
	<g>
		<path d="M418.056,162.056c-30.616,0-57.736,14.712-74.88,37.384L184.512,118.6c2.136-7.872,3.376-16.104,3.376-24.656
			C187.888,42.064,145.824,0,93.944,0S0,42.064,0,93.944c0,51.88,42.064,93.944,93.944,93.944c31.912,0,60.056-15.944,77.04-40.264
			l157.44,80.216c-2.792,8.888-4.304,18.344-4.304,28.16c0,9.816,1.512,19.272,4.304,28.16l-157.44,80.224
			c-16.976-24.32-45.128-40.272-77.04-40.272C42.064,324.112,0,366.176,0,418.056S42.064,512,93.944,512
			s93.944-42.064,93.944-93.944c0-8.544-1.24-16.784-3.376-24.648l158.664-80.848c17.152,22.672,44.264,37.384,74.88,37.384
			C469.936,349.944,512,307.88,512,256C512,204.112,469.936,162.056,418.056,162.056z M93.944,155.888
			C59.784,155.888,32,128.096,32,93.944C32,59.784,59.784,32,93.944,32c34.152,0,61.944,27.784,61.944,61.944
			C155.888,128.096,128.096,155.888,93.944,155.888z M93.944,480C59.784,480,32,452.216,32,418.056
			c0-34.152,27.792-61.944,61.944-61.944c34.152,0,61.944,27.792,61.944,61.944C155.888,452.216,128.096,480,93.944,480z
			 M418.056,317.944c-34.152,0-61.944-27.792-61.944-61.944c0-34.16,27.792-61.944,61.944-61.944
			C452.216,194.056,480,221.84,480,256C480,290.152,452.216,317.944,418.056,317.944z"/>
	</g>
</g>
</svg>