<svg width="250" height="250" viewBox="0 0 250 250" fill="none" xmlns="http://www.w3.org/2000/svg">
<g clip-path="url(#clip0_2603_3924)">
<path d="M125 229.167C182.53 229.167 229.166 182.531 229.166 125.001C229.166 67.471 182.53 20.834 125 20.834C67.47 20.834 20.833 67.471 20.833 125.001C20.833 182.531 67.47 229.167 125 229.167Z" fill="url(#paint0_linear_2603_3924)"/>
<g filter="url(#filter0_f_2603_3924)">
<path d="M131.34 201.086C169.86 201.086 201.086 169.86 201.086 131.34C201.086 92.8203 169.86 61.5938 131.34 61.5938C92.8203 61.5938 61.5938 92.8203 61.5938 131.34C61.5938 169.86 92.8203 201.086 131.34 201.086Z" fill="url(#paint1_linear_2603_3924)"/>
</g>
<path fill-rule="evenodd" clip-rule="evenodd" d="M56.2467 82.0468C57.9895 82.0468 59.4022 80.634 59.4022 78.8912C59.4022 77.1486 57.9895 75.7358 56.2467 75.7358C54.504 75.7358 53.0913 77.1486 53.0913 78.8912C53.0913 80.634 54.504 82.0468 56.2467 82.0468ZM56.2467 84.4134C59.2965 84.4134 61.7689 81.9411 61.7689 78.8912C61.7689 75.8415 59.2965 73.3691 56.2467 73.3691C53.197 73.3691 50.7246 75.8415 50.7246 78.8912C50.7246 81.9411 53.197 84.4134 56.2467 84.4134Z" fill="white"/>
<path fill-rule="evenodd" clip-rule="evenodd" d="M46.2828 179.873C48.0256 179.873 49.4384 178.46 49.4384 176.717C49.4384 174.974 48.0256 173.562 46.2828 173.562C44.5402 173.562 43.1274 174.974 43.1274 176.717C43.1274 178.46 44.5402 179.873 46.2828 179.873ZM46.2828 182.24C49.3327 182.24 51.805 179.767 51.805 176.717C51.805 173.667 49.3327 171.195 46.2828 171.195C43.2331 171.195 40.7607 173.667 40.7607 176.717C40.7607 179.767 43.2331 182.24 46.2828 182.24Z" fill="white"/>
<path fill-rule="evenodd" clip-rule="evenodd" d="M193.022 46.7206C194.764 46.7206 196.178 45.3078 196.178 43.5651C196.178 41.8224 194.764 40.4096 193.022 40.4096C191.279 40.4096 189.867 41.8224 189.867 43.5651C189.867 45.3078 191.279 46.7206 193.022 46.7206ZM193.022 49.0873C196.072 49.0873 198.544 46.6149 198.544 43.5651C198.544 40.5153 196.072 38.043 193.022 38.043C189.972 38.043 187.5 40.5153 187.5 43.5651C187.5 46.6149 189.972 49.0873 193.022 49.0873Z" fill="white"/>
<path d="M59.231 38.2153C59.4631 37.2538 60.8308 37.2538 61.0628 38.2153L61.844 41.4513C61.9269 41.7949 62.1952 42.0632 62.5388 42.1462L65.7749 42.9273C66.7364 43.1594 66.7364 44.527 65.7749 44.7591L62.5388 45.5403C62.1952 45.6232 61.9269 45.8914 61.844 46.2351L61.0628 49.4712C60.8308 50.4327 59.4631 50.4327 59.231 49.4712L58.4499 46.2351C58.3669 45.8914 58.0986 45.6232 57.755 45.5403L54.519 44.7591C53.5575 44.527 53.5575 43.1594 54.519 42.9273L57.755 42.1462C58.0986 42.0632 58.3669 41.7949 58.4499 41.4513L59.231 38.2153Z" fill="white"/>
<path d="M204.976 71.1869C205.23 70.133 206.729 70.133 206.984 71.1869L207.84 74.734C207.931 75.1106 208.225 75.4047 208.601 75.4957L212.148 76.3519C213.203 76.6063 213.203 78.1054 212.148 78.3598L208.601 79.2161C208.225 79.307 207.931 79.601 207.84 79.9777L206.984 83.5249C206.729 84.5788 205.23 84.5788 204.976 83.5249L204.119 79.9777C204.029 79.601 203.735 79.307 203.358 79.2161L199.811 78.3598C198.757 78.1054 198.757 76.6063 199.811 76.3519L203.358 75.4957C203.735 75.4047 204.029 75.1106 204.119 74.734L204.976 71.1869Z" fill="url(#paint2_linear_2603_3924)"/>
<path d="M49.8469 200.396C51.0461 200.204 52.0036 201.381 51.5702 202.516L48.6454 210.175C48.2121 211.31 46.713 211.55 45.9471 210.607L40.7769 204.244C40.0108 203.302 40.5525 201.884 41.7518 201.692L49.8469 200.396Z" fill="url(#paint3_linear_2603_3924)"/>
<path d="M191.103 182.978C190.803 181.8 191.889 180.74 193.059 181.068L200.952 183.287C202.12 183.615 202.496 185.086 201.627 185.934L195.76 191.661C194.89 192.509 193.429 192.098 193.129 190.921L191.103 182.978Z" fill="url(#paint4_linear_2603_3924)"/>
<g filter="url(#filter1_f_2603_3924)">
<path d="M180.277 205.132C180.277 210.721 153.765 215.251 121.063 215.251C88.3597 215.251 61.8486 210.721 61.8486 205.132C61.8486 199.544 88.3597 195.014 121.063 195.014C153.765 195.014 180.277 199.544 180.277 205.132Z" fill="url(#paint5_radial_2603_3924)"/>
</g>
<g filter="url(#filter2_i_2603_3924)">
<path d="M122.214 59.8649L83.6469 66.6653C80.5485 67.2117 78.4797 70.1663 79.026 73.2647L88.7462 128.391C89.2924 131.489 92.2472 133.558 95.3455 133.011L133.913 126.211C137.012 125.665 139.08 122.71 138.534 119.612L128.814 64.4858C128.267 61.3874 125.312 59.3185 122.214 59.8649Z" fill="url(#paint6_linear_2603_3924)"/>
</g>
<path d="M122.773 88.2023L92.8134 93.4851C91.8045 93.663 91.1309 94.6251 91.3088 95.6339L91.3099 95.6398C91.4877 96.6487 92.4498 97.3223 93.4586 97.1444L123.419 91.8616C124.427 91.6837 125.101 90.7217 124.924 89.7128L124.923 89.7069C124.744 88.6981 123.782 88.0244 122.773 88.2023Z" fill="url(#paint7_linear_2603_3924)"/>
<path d="M127.331 113.947L97.6285 119.184C96.6283 119.361 95.9572 120.296 96.1295 121.273L96.1305 121.279C96.3029 122.257 97.2534 122.906 98.2536 122.73L127.956 117.492C128.957 117.316 129.627 116.381 129.455 115.403L129.454 115.397C129.282 114.42 128.331 113.77 127.331 113.947Z" fill="url(#paint8_linear_2603_3924)"/>
<path d="M124.955 100.476L95.2525 105.713C94.2523 105.89 93.5812 106.825 93.7536 107.802L93.7546 107.809C93.9268 108.786 94.8774 109.435 95.8776 109.259L125.58 104.021C126.58 103.845 127.252 102.91 127.079 101.932L127.079 101.927C126.906 100.949 125.955 100.3 124.955 100.476Z" fill="url(#paint9_linear_2603_3924)"/>
<path d="M100.405 72.4884L91.6503 74.0321C89.7109 74.3741 88.4159 76.2235 88.7579 78.1628L89.1863 80.5925C89.5283 82.5318 91.3776 83.8268 93.317 83.4848L102.072 81.9411C104.011 81.5991 105.307 79.7498 104.964 77.8104L104.536 75.3807C104.194 73.4413 102.345 72.1464 100.405 72.4884Z" fill="#A259FF"/>
<g filter="url(#filter3_i_2603_3924)">
<path d="M168.177 75.0664H117.15C114.772 75.0664 112.845 76.994 112.845 79.3718V103.356C112.845 105.734 114.772 107.662 117.15 107.662H168.177C170.555 107.662 172.482 105.734 172.482 103.356V79.3718C172.482 76.994 170.555 75.0664 168.177 75.0664Z" fill="url(#paint10_linear_2603_3924)"/>
</g>
<path d="M125.44 96.3097C128.173 96.3097 130.39 94.0936 130.39 91.3599C130.39 88.6262 128.173 86.4102 125.44 86.4102C122.706 86.4102 120.49 88.6262 120.49 91.3599C120.49 94.0936 122.706 96.3097 125.44 96.3097Z" fill="white"/>
<path d="M143.129 96.3097C145.863 96.3097 148.078 94.0936 148.078 91.3599C148.078 88.6262 145.863 86.4102 143.129 86.4102C140.395 86.4102 138.179 88.6262 138.179 91.3599C138.179 94.0936 140.395 96.3097 143.129 96.3097Z" fill="white"/>
<path d="M160.817 96.3097C163.551 96.3097 165.767 94.0936 165.767 91.3599C165.767 88.6262 163.551 86.4102 160.817 86.4102C158.084 86.4102 155.867 88.6262 155.867 91.3599C155.867 94.0936 158.084 96.3097 160.817 96.3097Z" fill="white"/>
<path fill-rule="evenodd" clip-rule="evenodd" d="M116.139 161.244C116.566 158.817 118.88 157.198 121.306 157.625L146.795 162.12C150.277 162.734 153.425 164.351 155.656 166.688C157.886 169.023 159.397 172.342 158.749 176.018C158.101 179.694 155.546 182.297 152.652 183.73C149.757 185.164 146.245 185.61 142.761 184.996L82.1977 174.316C79.7715 173.889 78.1515 171.574 78.5793 169.149C79.0071 166.722 81.3207 165.102 83.7469 165.53L144.311 176.209C146.117 176.527 147.672 176.241 148.693 175.736C149.715 175.229 149.925 174.688 149.963 174.469C150.001 174.252 149.99 173.673 149.204 172.849C148.418 172.025 147.054 171.225 145.246 170.906L119.652 165.503C117.227 165.075 115.71 163.669 116.139 161.244Z" fill="url(#paint11_linear_2603_3924)"/>
<path fill-rule="evenodd" clip-rule="evenodd" d="M165.37 115.831C166.328 113.772 168.551 112.614 170.787 113.008L190.769 116.532C193.498 117.013 195.32 119.614 194.839 122.343C194.357 125.071 191.756 126.893 189.027 126.412L172.838 123.557L163.275 144.085C162.105 146.597 159.121 147.684 156.609 146.514C154.098 145.344 153.01 142.36 154.181 139.849L165.37 115.831Z" fill="url(#paint12_linear_2603_3924)"/>
<path d="M94.1482 192.088C100.059 193.13 105.696 189.183 106.738 183.272C107.78 177.361 103.833 171.725 97.9225 170.683C92.0117 169.64 86.3751 173.588 85.3329 179.498C84.2907 185.409 88.2375 191.045 94.1482 192.088Z" fill="url(#paint13_linear_2603_3924)"/>
<path d="M160.761 124.901L87.0078 111.896C81.4792 110.921 76.5687 114.891 76.9539 120.016L77.8749 149.93C78.1543 153.633 81.1762 156.757 85.1691 157.461L149.458 173.136L167.447 135.987C171.592 128.463 166.303 125.878 160.761 124.901Z" fill="url(#paint14_linear_2603_3924)"/>
<path d="M94.789 186.726C97.7585 187.25 100.59 185.267 101.114 182.298C101.637 179.328 99.6547 176.496 96.6851 175.973C93.7156 175.449 90.8839 177.432 90.3602 180.402C89.8366 183.371 91.8195 186.203 94.789 186.726Z" fill="url(#paint15_linear_2603_3924)"/>
<mask id="mask0_2603_3924" style="mask-type:alpha" maskUnits="userSpaceOnUse" x="76" y="111" width="93" height="63">
<path d="M160.761 124.901L87.0078 111.896C81.4792 110.921 76.5687 114.891 76.9539 120.016L77.8749 149.93C78.1543 153.633 81.1762 156.757 85.1691 157.461L149.458 173.136L167.447 135.987C169.564 131.288 166.303 125.878 160.761 124.901Z" fill="url(#paint16_linear_2603_3924)"/>
</mask>
<g mask="url(#mask0_2603_3924)">
<path d="M125.075 144.626C125.395 142.932 127.028 141.814 128.723 142.127C130.417 142.44 131.531 144.067 131.211 145.76L126.989 168.09C126.67 169.783 125.037 170.902 123.343 170.589C121.648 170.276 120.534 168.649 120.854 166.956L125.075 144.626Z" fill="#A259FF"/>
<path d="M180.173 130.101C181.587 130.347 182.539 131.694 182.3 133.11L182.126 134.135C181.886 135.551 180.545 136.499 179.13 136.254L76.0068 118.343C74.5921 118.097 73.6398 116.75 73.8798 115.335L74.0536 114.31C74.2935 112.894 75.6349 111.946 77.0496 112.191L180.173 130.101Z" fill="#A259FF"/>
<path d="M142.431 147.762C142.751 146.069 144.384 144.95 146.078 145.264C147.772 145.577 148.887 147.204 148.566 148.897L144.345 171.227C144.025 172.92 142.392 174.039 140.697 173.726C139.003 173.413 137.889 171.786 138.209 170.093L142.431 147.762Z" fill="#A259FF"/>
<path d="M107.723 141.489C108.043 139.796 109.676 138.677 111.37 138.99C113.064 139.303 114.179 140.93 113.858 142.623L109.637 164.954C109.317 166.647 107.684 167.765 105.989 167.453C104.295 167.139 103.181 165.512 103.501 163.82L107.723 141.489Z" fill="#A259FF"/>
<path d="M90.1698 138.393C90.4899 136.7 92.1228 135.582 93.8171 135.894C95.5114 136.208 96.6256 137.834 96.3055 139.527L92.0841 161.858C91.7641 163.551 90.1311 164.67 88.4367 164.357C86.7424 164.044 85.6283 162.417 85.9484 160.724L90.1698 138.393Z" fill="#A259FF"/>
<path d="M74.9279 112.21C75.2521 110.371 77.005 109.144 78.8433 109.468L168.97 125.359C170.808 125.684 172.035 127.437 171.711 129.275C171.386 131.114 169.634 132.341 167.796 132.017L77.6695 116.125C75.8312 115.801 74.6038 114.048 74.9279 112.21Z" fill="url(#paint17_linear_2603_3924)"/>
</g>
</g>
<defs>
<filter id="filter0_f_2603_3924" x="7.59375" y="7.59375" width="247.493" height="247.492" filterUnits="userSpaceOnUse" color-interpolation-filters="sRGB">
<feFlood flood-opacity="0" result="BackgroundImageFix"/>
<feBlend mode="normal" in="SourceGraphic" in2="BackgroundImageFix" result="shape"/>
<feGaussianBlur stdDeviation="27" result="effect1_foregroundBlur_2603_3924"/>
</filter>
<filter id="filter1_f_2603_3924" x="41.1612" y="174.326" width="159.804" height="61.6111" filterUnits="userSpaceOnUse" color-interpolation-filters="sRGB">
<feFlood flood-opacity="0" result="BackgroundImageFix"/>
<feBlend mode="normal" in="SourceGraphic" in2="BackgroundImageFix" result="shape"/>
<feGaussianBlur stdDeviation="10.3437" result="effect1_foregroundBlur_2603_3924"/>
</filter>
<filter id="filter2_i_2603_3924" x="78.9385" y="59.7773" width="62.0681" height="78.8862" filterUnits="userSpaceOnUse" color-interpolation-filters="sRGB">
<feFlood flood-opacity="0" result="BackgroundImageFix"/>
<feBlend mode="normal" in="SourceGraphic" in2="BackgroundImageFix" result="shape"/>
<feColorMatrix in="SourceAlpha" type="matrix" values="0 0 0 0 0 0 0 0 0 0 0 0 0 0 0 0 0 0 127 0" result="hardAlpha"/>
<feOffset dx="2.38455" dy="5.56394"/>
<feGaussianBlur stdDeviation="5.96137"/>
<feComposite in2="hardAlpha" operator="arithmetic" k2="-1" k3="1"/>
<feColorMatrix type="matrix" values="0 0 0 0 0.104618 0 0 0 0 0.465612 0 0 0 0 0.545833 0 0 0 0.15 0"/>
<feBlend mode="normal" in2="shape" result="effect1_innerShadow_2603_3924"/>
</filter>
<filter id="filter3_i_2603_3924" x="112.845" y="75.0664" width="65.2635" height="36.3463" filterUnits="userSpaceOnUse" color-interpolation-filters="sRGB">
<feFlood flood-opacity="0" result="BackgroundImageFix"/>
<feBlend mode="normal" in="SourceGraphic" in2="BackgroundImageFix" result="shape"/>
<feColorMatrix in="SourceAlpha" type="matrix" values="0 0 0 0 0 0 0 0 0 0 0 0 0 0 0 0 0 0 127 0" result="hardAlpha"/>
<feOffset dx="5.62585" dy="3.75056"/>
<feGaussianBlur stdDeviation="6.09467"/>
<feComposite in2="hardAlpha" operator="arithmetic" k2="-1" k3="1"/>
<feColorMatrix type="matrix" values="0 0 0 0 0.104618 0 0 0 0 0.465612 0 0 0 0 0.545833 0 0 0 0.09 0"/>
<feBlend mode="normal" in2="shape" result="effect1_innerShadow_2603_3924"/>
</filter>
<linearGradient id="paint0_linear_2603_3924" x1="49.8941" y1="20.834" x2="208.897" y2="53.9327" gradientUnits="userSpaceOnUse">
<stop stop-color="#A259FF"/>
<stop offset="1" stop-color="#3B3B3B"/>
</linearGradient>
<linearGradient id="paint1_linear_2603_3924" x1="161.231" y1="187.801" x2="114.714" y2="182.499" gradientUnits="userSpaceOnUse">
<stop stop-color="#A259FF" stop-opacity="0"/>
<stop offset="1" stop-color="#FF6250"/>
</linearGradient>
<linearGradient id="paint2_linear_2603_3924" x1="208.956" y1="73.4895" x2="222.298" y2="83.9693" gradientUnits="userSpaceOnUse">
<stop stop-color="#A259FF"/>
<stop offset="1" stop-color="#377DF7"/>
</linearGradient>
<linearGradient id="paint3_linear_2603_3924" x1="51.0836" y1="204.28" x2="50.6379" y2="217.555" gradientUnits="userSpaceOnUse">
<stop stop-color="#A259FF"/>
<stop offset="1" stop-color="#377DF7"/>
</linearGradient>
<linearGradient id="paint4_linear_2603_3924" x1="194.86" y1="181.393" x2="208.12" y2="180.633" gradientUnits="userSpaceOnUse">
<stop stop-color="#A259FF"/>
<stop offset="1" stop-color="#377DF7"/>
</linearGradient>
<radialGradient id="paint5_radial_2603_3924" cx="0" cy="0" r="1" gradientUnits="userSpaceOnUse" gradientTransform="translate(121.063 205.132) rotate(90) scale(10.1188 59.2142)">
<stop stop-color="#2B2B2B"/>
<stop offset="1" stop-color="#2B2B2B" stop-opacity="0"/>
</radialGradient>
<linearGradient id="paint6_linear_2603_3924" x1="86.0976" y1="66.2332" x2="136.257" y2="64.6874" gradientUnits="userSpaceOnUse">
<stop stop-color="#A259FF"/>
<stop offset="1" stop-color="#3B3B3B"/>
</linearGradient>
<linearGradient id="paint7_linear_2603_3924" x1="118.271" y1="91.702" x2="114.979" y2="81.9423" gradientUnits="userSpaceOnUse">
<stop stop-color="#A259FF"/>
<stop offset="0.666667" stop-color="white"/>
</linearGradient>
<linearGradient id="paint8_linear_2603_3924" x1="122.857" y1="117.357" x2="119.698" y2="107.886" gradientUnits="userSpaceOnUse">
<stop stop-color="#A259FF"/>
<stop offset="0.666667" stop-color="white"/>
</linearGradient>
<linearGradient id="paint9_linear_2603_3924" x1="120.481" y1="103.886" x2="117.321" y2="94.4155" gradientUnits="userSpaceOnUse">
<stop stop-color="#A259FF"/>
<stop offset="0.666667" stop-color="white"/>
</linearGradient>
<linearGradient id="paint10_linear_2603_3924" x1="112.845" y1="114.984" x2="149.543" y2="59.9061" gradientUnits="userSpaceOnUse">
<stop stop-color="#A259FF"/>
<stop offset="1" stop-color="#FF6250"/>
</linearGradient>
<linearGradient id="paint11_linear_2603_3924" x1="141.925" y1="178.175" x2="129.344" y2="119.126" gradientUnits="userSpaceOnUse">
<stop stop-color="#A259FF"/>
<stop offset="0.666667" stop-color="white"/>
</linearGradient>
<linearGradient id="paint12_linear_2603_3924" x1="183.858" y1="123.353" x2="212.899" y2="157.155" gradientUnits="userSpaceOnUse">
<stop stop-color="#A259FF"/>
<stop offset="1" stop-color="#377DF7"/>
</linearGradient>
<linearGradient id="paint13_linear_2603_3924" x1="101.593" y1="187.156" x2="76.7701" y2="161.794" gradientUnits="userSpaceOnUse">
<stop stop-color="#A259FF"/>
<stop offset="0.666667" stop-color="white"/>
</linearGradient>
<linearGradient id="paint14_linear_2603_3924" x1="145.222" y1="158.18" x2="95.3253" y2="58.7037" gradientUnits="userSpaceOnUse">
<stop stop-color="#A259FF"/>
<stop offset="0.666667" stop-color="white"/>
</linearGradient>
<linearGradient id="paint15_linear_2603_3924" x1="89.5636" y1="183.031" x2="105.056" y2="186.017" gradientUnits="userSpaceOnUse">
<stop stop-color="white"/>
<stop offset="1" stop-color="#BCF3FF"/>
</linearGradient>
<linearGradient id="paint16_linear_2603_3924" x1="76.3057" y1="121.766" x2="167.649" y2="139" gradientUnits="userSpaceOnUse">
<stop stop-color="#AFF1FF"/>
<stop offset="1" stop-color="#65C8DE"/>
</linearGradient>
<linearGradient id="paint17_linear_2603_3924" x1="151.9" y1="127.272" x2="153.386" y2="108.464" gradientUnits="userSpaceOnUse">
<stop stop-color="#A259FF"/>
<stop offset="0.666667" stop-color="white"/>
</linearGradient>
<clipPath id="clip0_2603_3924">
<rect width="250" height="250" fill="white"/>
</clipPath>
</defs>
</svg>
