<svg id="visual" viewBox="0 0 1950 1080" width="1950" height="1080" xmlns="http://www.w3.org/2000/svg" xmlns:xlink="http://www.w3.org/1999/xlink" version="1.1"><rect x="0" y="0" width="1950" height="1080" fill="#2b2b2b"></rect><path d="M0 680L46.5 680.3C93 680.7 186 681.3 278.8 691.3C371.7 701.3 464.3 720.7 557.2 713.2C650 705.7 743 671.3 835.8 653.8C928.7 636.3 1021.3 635.7 1114.2 656C1207 676.3 1300 717.7 1392.8 726.8C1485.7 736 1578.3 713 1671.2 701.3C1764 689.7 1857 689.3 1903.5 689.2L1950 689L1950 1081L1903.5 1081C1857 1081 1764 1081 1671.2 1081C1578.3 1081 1485.7 1081 1392.8 1081C1300 1081 1207 1081 1114.2 1081C1021.3 1081 928.7 1081 835.8 1081C743 1081 650 1081 557.2 1081C464.3 1081 371.7 1081 278.8 1081C186 1081 93 1081 46.5 1081L0 1081Z" fill="#a259ff"></path><path d="M0 760L46.5 773.2C93 786.3 186 812.7 278.8 826.2C371.7 839.7 464.3 840.3 557.2 839.2C650 838 743 835 835.8 820.5C928.7 806 1021.3 780 1114.2 765.5C1207 751 1300 748 1392.8 758.2C1485.7 768.3 1578.3 791.7 1671.2 809.5C1764 827.3 1857 839.7 1903.5 845.8L1950 852L1950 1081L1903.5 1081C1857 1081 1764 1081 1671.2 1081C1578.3 1081 1485.7 1081 1392.8 1081C1300 1081 1207 1081 1114.2 1081C1021.3 1081 928.7 1081 835.8 1081C743 1081 650 1081 557.2 1081C464.3 1081 371.7 1081 278.8 1081C186 1081 93 1081 46.5 1081L0 1081Z" fill="#8a5dff"></path><path d="M0 823L46.5 820.7C93 818.3 186 813.7 278.8 817.3C371.7 821 464.3 833 557.2 847.8C650 862.7 743 880.3 835.8 884.5C928.7 888.7 1021.3 879.3 1114.2 882.3C1207 885.3 1300 900.7 1392.8 902C1485.7 903.3 1578.3 890.7 1671.2 880.2C1764 869.7 1857 861.3 1903.5 857.2L1950 853L1950 1081L1903.5 1081C1857 1081 1764 1081 1671.2 1081C1578.3 1081 1485.7 1081 1392.8 1081C1300 1081 1207 1081 1114.2 1081C1021.3 1081 928.7 1081 835.8 1081C743 1081 650 1081 557.2 1081C464.3 1081 371.7 1081 278.8 1081C186 1081 93 1081 46.5 1081L0 1081Z" fill="#6f61ff"></path><path d="M0 888L46.5 886C93 884 186 880 278.8 885.8C371.7 891.7 464.3 907.3 557.2 909.2C650 911 743 899 835.8 905C928.7 911 1021.3 935 1114.2 936.8C1207 938.7 1300 918.3 1392.8 918.8C1485.7 919.3 1578.3 940.7 1671.2 936.8C1764 933 1857 904 1903.5 889.5L1950 875L1950 1081L1903.5 1081C1857 1081 1764 1081 1671.2 1081C1578.3 1081 1485.7 1081 1392.8 1081C1300 1081 1207 1081 1114.2 1081C1021.3 1081 928.7 1081 835.8 1081C743 1081 650 1081 557.2 1081C464.3 1081 371.7 1081 278.8 1081C186 1081 93 1081 46.5 1081L0 1081Z" fill="#4d64ff"></path><path d="M0 967L46.5 971.2C93 975.3 186 983.7 278.8 987.2C371.7 990.7 464.3 989.3 557.2 989.5C650 989.7 743 991.3 835.8 994.3C928.7 997.3 1021.3 1001.7 1114.2 1008.2C1207 1014.7 1300 1023.3 1392.8 1017.3C1485.7 1011.3 1578.3 990.7 1671.2 985C1764 979.3 1857 988.7 1903.5 993.3L1950 998L1950 1081L1903.5 1081C1857 1081 1764 1081 1671.2 1081C1578.3 1081 1485.7 1081 1392.8 1081C1300 1081 1207 1081 1114.2 1081C1021.3 1081 928.7 1081 835.8 1081C743 1081 650 1081 557.2 1081C464.3 1081 371.7 1081 278.8 1081C186 1081 93 1081 46.5 1081L0 1081Z" fill="#0066ff"></path></svg>