<svg id="visual" viewBox="0 0 1950 1080" width="1950" height="1080" xmlns="http://www.w3.org/2000/svg" xmlns:xlink="http://www.w3.org/1999/xlink" version="1.1"><rect x="0" y="0" width="1950" height="1080" fill="#2b2b2b"></rect><path d="M0 631L40.7 658.7C81.3 686.3 162.7 741.7 244 752.3C325.3 763 406.7 729 487.8 722C569 715 650 735 731.2 751.3C812.3 767.7 893.7 780.3 975 770.5C1056.3 760.7 1137.7 728.3 1219 701C1300.3 673.7 1381.7 651.3 1462.8 643C1544 634.7 1625 640.3 1706.2 647C1787.3 653.7 1868.7 661.3 1909.3 665.2L1950 669L1950 1081L1909.3 1081C1868.7 1081 1787.3 1081 1706.2 1081C1625 1081 1544 1081 1462.8 1081C1381.7 1081 1300.3 1081 1219 1081C1137.7 1081 1056.3 1081 975 1081C893.7 1081 812.3 1081 731.2 1081C650 1081 569 1081 487.8 1081C406.7 1081 325.3 1081 244 1081C162.7 1081 81.3 1081 40.7 1081L0 1081Z" fill="#a259ff"></path><path d="M0 811L40.7 791.7C81.3 772.3 162.7 733.7 244 733.8C325.3 734 406.7 773 487.8 798.2C569 823.3 650 834.7 731.2 838.8C812.3 843 893.7 840 975 828.2C1056.3 816.3 1137.7 795.7 1219 775.3C1300.3 755 1381.7 735 1462.8 730.7C1544 726.3 1625 737.7 1706.2 752.7C1787.3 767.7 1868.7 786.3 1909.3 795.7L1950 805L1950 1081L1909.3 1081C1868.7 1081 1787.3 1081 1706.2 1081C1625 1081 1544 1081 1462.8 1081C1381.7 1081 1300.3 1081 1219 1081C1137.7 1081 1056.3 1081 975 1081C893.7 1081 812.3 1081 731.2 1081C650 1081 569 1081 487.8 1081C406.7 1081 325.3 1081 244 1081C162.7 1081 81.3 1081 40.7 1081L0 1081Z" fill="#8f5dff"></path><path d="M0 879L40.7 867.2C81.3 855.3 162.7 831.7 244 813.7C325.3 795.7 406.7 783.3 487.8 777.5C569 771.7 650 772.3 731.2 787.7C812.3 803 893.7 833 975 831.3C1056.3 829.7 1137.7 796.3 1219 797C1300.3 797.7 1381.7 832.3 1462.8 833C1544 833.7 1625 800.3 1706.2 802.8C1787.3 805.3 1868.7 843.7 1909.3 862.8L1950 882L1950 1081L1909.3 1081C1868.7 1081 1787.3 1081 1706.2 1081C1625 1081 1544 1081 1462.8 1081C1381.7 1081 1300.3 1081 1219 1081C1137.7 1081 1056.3 1081 975 1081C893.7 1081 812.3 1081 731.2 1081C650 1081 569 1081 487.8 1081C406.7 1081 325.3 1081 244 1081C162.7 1081 81.3 1081 40.7 1081L0 1081Z" fill="#7a60ff"></path><path d="M0 845L40.7 842.2C81.3 839.3 162.7 833.7 244 846.3C325.3 859 406.7 890 487.8 906C569 922 650 923 731.2 918.3C812.3 913.7 893.7 903.3 975 895C1056.3 886.7 1137.7 880.3 1219 888.7C1300.3 897 1381.7 920 1462.8 931.2C1544 942.3 1625 941.7 1706.2 931.7C1787.3 921.7 1868.7 902.3 1909.3 892.7L1950 883L1950 1081L1909.3 1081C1868.7 1081 1787.3 1081 1706.2 1081C1625 1081 1544 1081 1462.8 1081C1381.7 1081 1300.3 1081 1219 1081C1137.7 1081 1056.3 1081 975 1081C893.7 1081 812.3 1081 731.2 1081C650 1081 569 1081 487.8 1081C406.7 1081 325.3 1081 244 1081C162.7 1081 81.3 1081 40.7 1081L0 1081Z" fill="#6362ff"></path><path d="M0 943L40.7 935.2C81.3 927.3 162.7 911.7 244 904.3C325.3 897 406.7 898 487.8 909C569 920 650 941 731.2 945.3C812.3 949.7 893.7 937.3 975 934.8C1056.3 932.3 1137.7 939.7 1219 937C1300.3 934.3 1381.7 921.7 1462.8 923C1544 924.3 1625 939.7 1706.2 949.3C1787.3 959 1868.7 963 1909.3 965L1950 967L1950 1081L1909.3 1081C1868.7 1081 1787.3 1081 1706.2 1081C1625 1081 1544 1081 1462.8 1081C1381.7 1081 1300.3 1081 1219 1081C1137.7 1081 1056.3 1081 975 1081C893.7 1081 812.3 1081 731.2 1081C650 1081 569 1081 487.8 1081C406.7 1081 325.3 1081 244 1081C162.7 1081 81.3 1081 40.7 1081L0 1081Z" fill="#4564ff"></path><path d="M0 1000L40.7 1005.5C81.3 1011 162.7 1022 244 1017.7C325.3 1013.3 406.7 993.7 487.8 990C569 986.3 650 998.7 731.2 1003.3C812.3 1008 893.7 1005 975 1003.5C1056.3 1002 1137.7 1002 1219 1000.2C1300.3 998.3 1381.7 994.7 1462.8 999C1544 1003.3 1625 1015.7 1706.2 1013.8C1787.3 1012 1868.7 996 1909.3 988L1950 980L1950 1081L1909.3 1081C1868.7 1081 1787.3 1081 1706.2 1081C1625 1081 1544 1081 1462.8 1081C1381.7 1081 1300.3 1081 1219 1081C1137.7 1081 1056.3 1081 975 1081C893.7 1081 812.3 1081 731.2 1081C650 1081 569 1081 487.8 1081C406.7 1081 325.3 1081 244 1081C162.7 1081 81.3 1081 40.7 1081L0 1081Z" fill="#0066ff"></path></svg>