<!--?xml version="1.0" standalone="no"?-->              <svg id="sw-js-blob-svg" viewBox="0 0 100 100" xmlns="http://www.w3.org/2000/svg">                    <defs>                         <linearGradient id="sw-gradient" x1="0" x2="1" y1="1" y2="0">                            <stop id="stop1" stop-color="rgba(162, 89, 255, 1)" offset="0%"></stop>                            <stop id="stop2" stop-color="rgba(0, 102, 255, 1)" offset="100%"></stop>                        </linearGradient>                    </defs>                <path fill="url(#sw-gradient)" d="M17.1,-31.3C20.8,-27.4,21.7,-20.2,24.5,-14.4C27.3,-8.7,32,-4.3,32,0C32,4.3,27.2,8.6,23.7,13.2C20.2,17.8,18,22.6,14.3,28C10.5,33.5,5.3,39.6,-0.5,40.5C-6.4,41.5,-12.7,37.3,-16.7,31.9C-20.7,26.6,-22.2,20.2,-26.9,14.7C-31.7,9.2,-39.5,4.6,-41.7,-1.3C-43.9,-7.1,-40.4,-14.2,-35.5,-19.4C-30.7,-24.7,-24.4,-28.1,-18.2,-30.5C-12.1,-33,-6,-34.5,0.3,-35.1C6.7,-35.6,13.3,-35.1,17.1,-31.3Z" width="100%" height="100%" transform="translate(55 50)" stroke-width="0" style="transition: all 0.3s ease 0s;" stroke="url(#sw-gradient)"></path>              </svg>