<svg width="18" height="16" viewBox="0 0 18 16" fill="none" xmlns="http://www.w3.org/2000/svg">
<path d="M6.28613 14.1992C6.28613 15.0379 6.96845 15.7202 7.80713 15.7202C8.64581 15.7202 9.32814 15.0379 9.32814 14.1992C9.32814 13.3605 8.64581 12.6782 7.80713 12.6782C6.96845 12.6782 6.28613 13.3605 6.28613 14.1992ZM7.80713 13.6922C8.08669 13.6922 8.31413 13.9197 8.31413 14.1992C8.31413 14.4788 8.08669 14.7062 7.80713 14.7062C7.52757 14.7062 7.30013 14.4788 7.30013 14.1992C7.30013 13.9197 7.52757 13.6922 7.80713 13.6922Z" fill="white"/>
<path d="M11.3901 14.1992C11.3901 15.0379 12.0725 15.7202 12.9111 15.7202C13.7498 15.7202 14.4321 15.0379 14.4321 14.1992C14.4321 13.3605 13.7498 12.6782 12.9111 12.6782C12.0725 12.6782 11.3901 13.3605 11.3901 14.1992ZM12.9111 13.6922C13.1907 13.6922 13.4181 13.9197 13.4181 14.1992C13.4181 14.4788 13.1907 14.7062 12.9111 14.7062C12.6316 14.7062 12.4041 14.4788 12.4041 14.1992C12.4041 13.9197 12.6316 13.6922 12.9111 13.6922Z" fill="white"/>
<path d="M16.9671 2.53826H4.13378C3.96018 1.93056 3.79841 1.36435 3.65946 0.877998C3.5973 0.660326 3.39832 0.510254 3.17196 0.510254H0.675458C0.395458 0.510254 0.168457 0.737255 0.168457 1.01725C0.168457 1.29725 0.395458 1.52425 0.675458 1.52425H2.78951C3.35648 3.50886 4.68191 8.14801 5.23758 10.0929L5.0455 10.477C4.53934 11.4894 5.27649 12.6783 6.40595 12.6783H14.9391C15.2191 12.6783 15.4461 12.4513 15.4461 12.1713C15.4461 11.8913 15.2191 11.6643 14.9391 11.6643H6.40595C6.02888 11.6643 5.78399 11.2675 5.95245 10.9305L6.09259 10.6503H14.9391C15.1654 10.6503 15.3644 10.5002 15.4266 10.2826L17.4546 3.18455C17.5469 2.86125 17.3041 2.53826 16.9671 2.53826ZM14.5567 9.63626H6.16171C5.88546 8.66934 5.11232 5.96338 4.42348 3.55226H16.295L14.5567 9.63626Z" fill="white"/>
</svg>
